<svg xmlns="http://www.w3.org/2000/svg" xmlns:xlink="http://www.w3.org/1999/xlink" width="68" height="80.125" viewBox="0 0 68 80.125">
  <defs>
    <clipPath id="clip-path">
      <rect id="Rectangle_6712" data-name="Rectangle 6712" width="68" height="80.125" transform="translate(0 0)" fill="none"/>
    </clipPath>
  </defs>
  <g id="Groupe_1407" data-name="Groupe 1407" transform="translate(0 0)">
    <g id="Groupe_1205" data-name="Groupe 1205" clip-path="url(#clip-path)">
      <path id="Tracé_728" data-name="Tracé 728" d="M0,41.382H0A3.768,3.768,0,0,0,3.768,45.15H29.611V27.074h-15.3A14.308,14.308,0,0,0,0,41.382" fill="#001e8c"/>
      <path id="Tracé_729" data-name="Tracé 729" d="M53.692,27.074h-15.3V45.15H64.232A3.768,3.768,0,0,0,68,41.382,14.308,14.308,0,0,0,53.692,27.074" fill="#001e8c"/>
      <path id="Tracé_730" data-name="Tracé 730" d="M5.181,48.924V65.817A14.308,14.308,0,0,0,19.489,80.125H29.611v-31.2Z" fill="#001e8c"/>
      <path id="Tracé_731" data-name="Tracé 731" d="M62.819,48.924H38.389v31.2H48.511A14.308,14.308,0,0,0,62.819,65.817Z" fill="#001e8c"/>
      <path id="Tracé_732" data-name="Tracé 732" d="M34,23.382a41.912,41.912,0,0,0,14.422-2.763c3.751-1.441,8.636-4.007,10.6-8.054,1.465-3.014,1.008-6.282-1.285-9.2A8.2,8.2,0,0,0,49.005.267C43.185,1.664,37.364,8.374,34,14.3,30.636,8.374,24.814,1.663,18.994.267a8.185,8.185,0,0,0-8.737,3.095c-2.294,2.921-2.751,6.189-1.286,9.2,1.967,4.047,6.852,6.613,10.6,8.054A41.912,41.912,0,0,0,34,23.382Zm7.94-10.77C44.865,8.888,48,6.331,50.326,5.772a3.562,3.562,0,0,1,.84-.109,2.6,2.6,0,0,1,2.126,1.2c1.206,1.535,1,2.495.646,3.23-1.518,3.122-8.292,6.2-15.164,7.25a37.316,37.316,0,0,1,3.17-4.728M14.063,10.09c-.357-.735-.561-1.695.646-3.23a2.6,2.6,0,0,1,2.126-1.2,3.561,3.561,0,0,1,.839.109c2.327.558,5.46,3.115,8.381,6.839a37.474,37.474,0,0,1,3.171,4.728c-6.872-1.053-13.646-4.127-15.163-7.249" fill="#001e8c"/>
    </g>
  </g>
</svg>
