<svg xmlns="http://www.w3.org/2000/svg" width="64.001" height="80.999" viewBox="0 0 64.001 80.999">
  <g id="Groupe_1335" data-name="Groupe 1335" transform="translate(1570.5 -461.501)">
    <path id="Exclusion_4" data-name="Exclusion 4" d="M13529.5,6363h-36a14.31,14.31,0,0,1-9.547-3.515A11.294,11.294,0,0,1,13480,6351v-56a11.291,11.291,0,0,1,3.954-8.485,14.307,14.307,0,0,1,9.547-3.513h36a14.31,14.31,0,0,1,9.546,3.513A11.292,11.292,0,0,1,13543,6295v56a11.3,11.3,0,0,1-3.954,8.486A14.309,14.309,0,0,1,13529.5,6363Zm-36-21.749a2.25,2.25,0,0,0,0,4.5h22.5a2.25,2.25,0,0,0,0-4.5Zm0-13.5a2.25,2.25,0,0,0,0,4.5h36a2.25,2.25,0,0,0,0-4.5Zm0-13.5a2.25,2.25,0,0,0,0,4.5h36a2.25,2.25,0,0,0,0-4.5Zm0-13.5a2.25,2.25,0,0,0,0,4.5h36a2.25,2.25,0,0,0,0-4.5Z" transform="translate(-15050 -5821)" fill="#001e8c" stroke="rgba(0,0,0,0)" stroke-miterlimit="10" stroke-width="1"/>
  </g>
</svg>
