<svg xmlns="http://www.w3.org/2000/svg" width="24.184" height="24.185" viewBox="0 0 24.184 24.185">
  <g id="Groupe_622" data-name="Groupe 622" transform="translate(-1183.153 -4008.382)">
    <g id="Groupe_71" data-name="Groupe 71">
      <path id="Tracé_159" data-name="Tracé 159" d="M1204.285,4008.382H1186.2a3.046,3.046,0,0,0-3.049,3.047v18.089a3.05,3.05,0,0,0,3.049,3.049h18.083a3.055,3.055,0,0,0,3.052-3.049v-18.089a3.051,3.051,0,0,0-3.052-3.047Zm-9.044,8.546a3.546,3.546,0,1,1-3.545,3.542,3.552,3.552,0,0,1,3.545-3.542Zm9.281,11.3a1.617,1.617,0,0,1-1.628,1.526h-15.246a1.672,1.672,0,0,1-1.688-1.526V4020.6a1.68,1.68,0,0,1,1.688-1.537h.853a.577.577,0,0,1,.418.189.57.57,0,0,1,.131.444,5.914,5.914,0,0,0-.049.77,6.244,6.244,0,1,0,12.432-.77.558.558,0,0,1,.556-.633h.905a1.624,1.624,0,0,1,1.628,1.537Zm0-14.058h0a1.524,1.524,0,0,1-1.523,1.523h-1.45a1.524,1.524,0,0,1-1.524-1.523v-1.453a1.523,1.523,0,0,1,1.524-1.523H1203a1.523,1.523,0,0,1,1.523,1.523Zm0,0"/>
    </g>
  </g>
</svg>
