<svg xmlns="http://www.w3.org/2000/svg" xmlns:xlink="http://www.w3.org/1999/xlink" width="100" height="67.007" viewBox="0 0 100 67.007">
  <defs>
    <clipPath id="clip-path">
      <rect id="Rectangle_6711" data-name="Rectangle 6711" width="100" height="67.007" transform="translate(0 0)" fill="#001e8c"/>
    </clipPath>
  </defs>
  <g id="Groupe_1406" data-name="Groupe 1406" transform="translate(0 0)">
    <g id="Groupe_1203" data-name="Groupe 1203" clip-path="url(#clip-path)">
      <path id="Tracé_714" data-name="Tracé 714" d="M60.408,34.846a25.692,25.692,0,0,1,1.653,6.668s.212,2.362-.292,3.09A5.116,5.116,0,0,1,56.313,47.1c-3.881-.621-6.185-3.148-7.354-6.6a70.572,70.572,0,0,1-1.88-8.552c-.11-.529-.038-1.053-.823-1.127a17.078,17.078,0,0,0-7.833.648c-.67.25-.886.528-.853,1.334.11,2.759.132,5.528.011,8.286a4.969,4.969,0,0,1-1.646,3.766,6.038,6.038,0,0,1-3.205-4.108,84.087,84.087,0,0,1-1.977-9.673,59.3,59.3,0,0,1-.191-6.965c-3.018-.2-5.712-.665-8.417.158-2.741.835-2.782.8-2.783,3.688,0,.788-.27.994-1.014,1.181a39.638,39.638,0,0,0-6.377,1.929c-4.548,2.021-7.539,5.38-8.2,10.522-1.12,8.689,7.061,16.186,15.385,14.064A13.427,13.427,0,0,0,25.6,51.568a9.641,9.641,0,0,0,8.721,6.253c4.195.312,7.124-1.759,9.093-5.449a9.712,9.712,0,0,0,6.27,4.924c5.24,1.574,13.725.287,18.091-6.8l.637.66a25.074,25.074,0,0,0,17.612,1.322C96.843,49.591,103.463,41.12,98.1,32.094c-4.376-7.37-15.648-7.247-25.241-1a33.4,33.4,0,0,0-4.811,3.818c-.158-.735-.326-1.42-.488-2.031l-.047-.146c-.262-.861-.45-1.372-.45-1.372L59.454,32.54s.418.916.947,2.262ZM21.2,43.7a4.1,4.1,0,0,1-3.9.124,2.068,2.068,0,0,1-.037-3.527,24.19,24.19,0,0,1,3.925-1.524c.191,1.665.353,2.849.429,4.038a1.21,1.21,0,0,1-.416.889m67.174-.513c-4.827,4.6-16.407.588-16.407.588a20.922,20.922,0,0,1,10.452-8.158c4.783-1.6,11.506,2.275,5.955,7.57" fill="#001e8c"/>
      <path id="Tracé_715" data-name="Tracé 715" d="M0,26.117a5.678,5.678,0,0,1,7.336-5.583c.619.191,1.045.417,1.07,1.249a4.715,4.715,0,0,0,2.24,3.933,1.221,1.221,0,0,1,.542,1.554,5.739,5.739,0,0,1-5.978,4.354A5.7,5.7,0,0,1,0,26.117" fill="#001e8c"/>
      <path id="Tracé_716" data-name="Tracé 716" d="M14.948,26.082a5.216,5.216,0,1,1,.017,0h-.017" fill="#001e8c"/>
      <path id="Tracé_717" data-name="Tracé 717" d="M88.648,18.8c1.757,4.284,1.755,4.263-1.7,4.9q-5.1.939-10.189,1.963c-3,.6-2.992.62-4.126-3.034Z" fill="#001e8c"/>
      <path id="Tracé_718" data-name="Tracé 718" d="M45.3,24.328c-1.688-.09-2.251-2.347-2.217-4.039a9.5,9.5,0,0,1,.363-2.646l2.3.2a6.683,6.683,0,0,0-.593,3.25,2,2,0,0,0,.254.8s.421.8.819-.3a9.291,9.291,0,0,0,.134-3.228l2.322.2a22.059,22.059,0,0,0-.243,2.811c.023,1.028.714,1.556,1.195.1a6.668,6.668,0,0,0-.028-3.3l2.3.2a9.5,9.5,0,0,1-.095,2.668c-.256,1.673-1.2,3.8-2.872,3.6a1.866,1.866,0,0,1-1.749-1.7s-.6,1.5-1.97,1.38a1.682,1.682,0,0,1-1.168-.608" fill="#001e8c"/>
      <path id="Tracé_719" data-name="Tracé 719" d="M48.521,58.77A4.775,4.775,0,0,0,45.1,57.443h-.021a4.776,4.776,0,1,0,4.909,4.687,4.742,4.742,0,0,0-1.466-3.361" fill="#001e8c"/>
      <path id="Tracé_720" data-name="Tracé 720" d="M28.988,2.54c-.434,1.111-.868,2.222-1.283,3.34-.287.765-.558,1.539-.792,2.323-.339,1.128-.658,2.263-.945,3.406a4.256,4.256,0,0,0-.076,1.154.728.728,0,0,1-.631.814.748.748,0,0,1-.206,0,1.942,1.942,0,0,1-.393-.079,8.342,8.342,0,0,1-1.011-.353,1.478,1.478,0,0,1-.825-.875q-.848-2.485-1.709-4.955c-.142-.407-.322-.8-.49-1.2a1.611,1.611,0,0,0-.134-.212.978.978,0,0,0-.116.222c-.252,1.058-.5,2.116-.745,3.181-.255,1.136-.484,2.278-.736,3.414a.742.742,0,0,1-.909.523.822.822,0,0,1-.095-.033c-.3-.122-.622-.214-.912-.363a5.311,5.311,0,0,1-.8-.536c-.053-.041-.039-.191-.029-.287A54.99,54.99,0,0,1,17.14,6.5,16.022,16.022,0,0,1,17.7,4.284c.257-.686.355-1.409.607-2.091a1.677,1.677,0,0,1,.191-.451.41.41,0,0,0,.116-.353c.116-.2.231-.392.348-.587A3.858,3.858,0,0,1,20.334.617c.51,0,.75.414,1.053.705a2.445,2.445,0,0,1,.574,1.047c.233.722.552,1.416.839,2.121q.525,1.284,1.053,2.566a1.956,1.956,0,0,0,.115.24.945.945,0,0,0,.11.134c.03-.045.061-.088.09-.133A10.586,10.586,0,0,0,25,5.042c.373-1.02.751-2.039,1.122-3.063.107-.293.211-.589.293-.889a.907.907,0,0,1,1.029-.7,1.9,1.9,0,0,1,.614.336,5.992,5.992,0,0,1,.647.51,1.137,1.137,0,0,1,.287,1.3" fill="#001e8c"/>
      <path id="Tracé_721" data-name="Tracé 721" d="M40.7,3.649c-.133.389-.191.5-.766.541-.753.054-1.507.088-2.262.129-.231.012-.464.017-.695.032-.37.025-.422.062-.487.427-.085.5-.157,1.008-.238,1.512-.142.892-.3,1.782-.428,2.68-.169,1.2-.31,2.4-.468,3.6-.039.287-.088.574-.149.861a.734.734,0,0,1-.815.642.717.717,0,0,1-.217-.061,3.288,3.288,0,0,1-1.37-.806.427.427,0,0,0-.169-.128c-.218-.054-.212-.205-.192-.375.083-.693.16-1.387.246-2.08a2.308,2.308,0,0,1,.1-.383c.018-.068.085-.132.082-.191a16,16,0,0,1,.363-2.885c.088-.676.184-1.353.259-2.031.039-.37-.035-.434-.4-.479a18.638,18.638,0,0,0-2.1.07,1.347,1.347,0,0,1-1.523-.809c-.158-.295-.3-.6-.426-.909a.458.458,0,0,1,.045-.492.492.492,0,0,0,.062-.265c.282-.069.571-.126.867-.173.938-.019,1.874-.041,2.809-.078a11.279,11.279,0,0,0,1.161-.122c.061-.008.129-.111.152-.183a3.908,3.908,0,0,0,.179-.716.349.349,0,0,1,.3-.327,1.54,1.54,0,0,1,1.467.452,1.379,1.379,0,0,1,.213.219.876.876,0,0,0,.957.355c.646-.063,1.293-.136,1.938-.209a1.417,1.417,0,0,1,1.069.553,6.95,6.95,0,0,1,.409.916,1.053,1.053,0,0,1,.036.717" fill="#001e8c"/>
      <path id="Tracé_722" data-name="Tracé 722" d="M44.3,5.866c-.14.468-.042.6.456.621.391.015.785-.014,1.176,0a3.787,3.787,0,0,1,.795.078c.459.109.575.55.755.9a2.471,2.471,0,0,1,.16.644c.144.7-.413,1.015-.929,1.027-1.026.024-2.05.1-3.075.149a.455.455,0,0,0-.479.383c-.072.278-.159.552-.249.825-.071.215-.03.336.219.377a5.81,5.81,0,0,0,1.473.013c1.148-.1,2.3-.152,3.454-.22a1.373,1.373,0,0,1,.272.006,1.111,1.111,0,0,1,1.045.642,2.435,2.435,0,0,1,.35,1.149c-.041.511-.257.743-.758.757-1.115.034-2.234.024-3.345.115-1.047.086-2.087.277-3.129.423l-1.34.192a1.038,1.038,0,0,0-.353.071c-.526.3-.958-.086-1.224-.511-.111-.179-.2-.37-.315-.547a.883.883,0,0,1-.217-.642c.122-.287.24-.566.342-.861.042-.008.075-.058.1-.137a5.438,5.438,0,0,0,.22-.738,35.042,35.042,0,0,1,1.21-4.076c.205-.647.4-1.3.642-1.933a1.438,1.438,0,0,0-.129-1.292,3.306,3.306,0,0,1-.218-.495c-.07-.2-.116-.4.1-.574a.25.25,0,0,0,.11-.17,4.61,4.61,0,0,0,.374-.309.728.728,0,0,0,.545-.163c.008-.008.018-.014.027-.023a19.059,19.059,0,0,0,3.575-.326,2.649,2.649,0,0,0,.861-.03c.347-.021.694-.055,1.04-.084q.405,0,.809.014a.5.5,0,0,0,.267-.064c.119,0,.237,0,.356.011a1.855,1.855,0,0,1,1.111.451,1.766,1.766,0,0,1,.392.795,2.071,2.071,0,0,1,.116.792.793.793,0,0,1-.943.8c-.165-.006-.33-.029-.5-.044a23,23,0,0,0-3.97.161.886.886,0,0,0-.8.683c-.113.39-.274.766-.391,1.156" fill="#001e8c"/>
      <path id="Tracé_723" data-name="Tracé 723" d="M57.022,11.043a.852.852,0,0,0,.165.158,6.478,6.478,0,0,0,.643.328c.518.219,1.034.447,1.565.628a.981.981,0,0,1,.657,1.123c-.013.065-.03.128-.049.191-.2.832-.5,1.062-1.356,1.023a3.142,3.142,0,0,1-1.34-.358,9.815,9.815,0,0,1-2.154-1.228,6.516,6.516,0,0,0-.651-.47,1.28,1.28,0,0,0-.207-.125c-.25-.112-.274-.087-.357.173A13.093,13.093,0,0,1,53.5,13.73c-.3.7-.575.8-1.3.644a3.19,3.19,0,0,1-1.377-.511c-.127-.1-.118-.145-.108-.273a13.117,13.117,0,0,1,.66-2.094c.083-.347.2-.685.3-1.027a4.03,4.03,0,0,0,.358-1.34.581.581,0,0,0,.071-.27,2.714,2.714,0,0,0,.155-.488c.154-.54.3-1.081.444-1.623.013-.052.046-.115.028-.156l-.014-.045a4.593,4.593,0,0,0,.495-1.653v0a.212.212,0,0,0,.1-.18c0-.143.029-.191-.151-.223a2.859,2.859,0,0,1-.635-.261.424.424,0,0,1-.162-.116c-.2-.27-.4-.544-.606-.815a1.725,1.725,0,0,1,.383-1.068c.095-.025.2-.062.3-.1a8.874,8.874,0,0,1,1.633-.491c.442-.051.875-.169,1.322-.186.421-.016.839-.1,1.261-.118a3.508,3.508,0,0,1,1.689.192,4.848,4.848,0,0,1,1.387,1.01A6.053,6.053,0,0,1,61.128,5,2.847,2.847,0,0,1,61.2,6.4a4.54,4.54,0,0,1-1.263,2.494A10.308,10.308,0,0,1,58.81,9.91a6.128,6.128,0,0,1-1.6.957c-.074.026-.124.118-.186.18m.142-3.356a1.844,1.844,0,0,0,.419-.5,1.25,1.25,0,0,0,.129-.123,13.542,13.542,0,0,0,.9-1.126A2.029,2.029,0,0,0,58.937,4.8a.873.873,0,0,0-.5-.816,2.561,2.561,0,0,0-.66-.132c-.3.018-.676.037-1.047.067a.422.422,0,0,0-.434.345c-.032.142-.1.276-.146.417q-.323,1.076-.634,2.157-.232.811-.452,1.628a1.292,1.292,0,0,0-.019.271.765.765,0,0,0,.261-.015c.493-.211.986-.42,1.467-.657.15-.074.34-.206.375-.347a.1.1,0,0,1,.009-.027" fill="#001e8c"/>
      <path id="Tracé_724" data-name="Tracé 724" d="M74.314,3.971c-.434,1.111-.868,2.222-1.283,3.34-.287.765-.558,1.539-.792,2.323-.339,1.128-.658,2.263-.945,3.406a4.257,4.257,0,0,0-.076,1.154.728.728,0,0,1-.631.814.748.748,0,0,1-.206,0,1.942,1.942,0,0,1-.393-.079,8.342,8.342,0,0,1-1.011-.353,1.478,1.478,0,0,1-.825-.875q-.845-2.479-1.707-4.954c-.142-.406-.323-.8-.49-1.2a1.61,1.61,0,0,0-.134-.212.978.978,0,0,0-.116.222c-.254,1.058-.51,2.116-.747,3.179-.255,1.136-.484,2.278-.736,3.414a.742.742,0,0,1-.909.523.822.822,0,0,1-.1-.033c-.3-.122-.622-.214-.912-.363a5.311,5.311,0,0,1-.8-.536c-.053-.041-.039-.191-.029-.287a54.99,54.99,0,0,1,.991-5.524,16.022,16.022,0,0,1,.558-2.212c.257-.686.355-1.409.607-2.091a1.677,1.677,0,0,1,.191-.451.41.41,0,0,0,.116-.353c.116-.2.231-.392.348-.587a3.873,3.873,0,0,1,1.373-.183c.51,0,.75.414,1.053.705A2.445,2.445,0,0,1,67.286,3.8c.233.722.552,1.416.839,2.121q.525,1.284,1.053,2.566a1.956,1.956,0,0,0,.115.24,1,1,0,0,0,.11.134c.03-.045.061-.088.09-.133a10.586,10.586,0,0,0,.827-2.255c.373-1.02.751-2.039,1.122-3.063.107-.293.211-.589.293-.889a.907.907,0,0,1,1.033-.705,1.9,1.9,0,0,1,.614.336,5.993,5.993,0,0,1,.647.51,1.137,1.137,0,0,1,.287,1.305" fill="#001e8c"/>
      <path id="Tracé_725" data-name="Tracé 725" d="M79.287,6.974c-.14.468-.042.6.456.621.391.015.785-.014,1.176,0a3.787,3.787,0,0,1,.795.078c.459.109.575.55.755.9a2.471,2.471,0,0,1,.16.644c.144.7-.413,1.015-.929,1.027-1.026.024-2.05.1-3.075.149a.455.455,0,0,0-.479.383c-.072.278-.159.552-.249.825-.071.215-.03.336.219.377a5.81,5.81,0,0,0,1.473.013c1.148-.1,2.3-.152,3.454-.221a1.453,1.453,0,0,1,.272.007,1.111,1.111,0,0,1,1.045.642,2.435,2.435,0,0,1,.35,1.149c-.041.511-.257.743-.758.757-1.115.034-2.234.024-3.345.115-1.047.086-2.087.277-3.129.423l-1.34.192a1.038,1.038,0,0,0-.353.071c-.526.3-.958-.086-1.224-.511-.111-.179-.2-.37-.315-.547a.883.883,0,0,1-.217-.642c.122-.287.239-.566.342-.861.042-.008.075-.058.1-.137a5.437,5.437,0,0,0,.22-.738A35.042,35.042,0,0,1,75.9,7.613c.205-.647.4-1.3.642-1.933a1.438,1.438,0,0,0-.124-1.291,3.306,3.306,0,0,1-.218-.495c-.07-.2-.116-.4.1-.575a.244.244,0,0,0,.111-.169,4.79,4.79,0,0,0,.374-.309.725.725,0,0,0,.544-.163c.009-.008.019-.014.028-.023a19.041,19.041,0,0,0,3.574-.326A2.654,2.654,0,0,0,81.8,2.3c.347-.021.694-.055,1.04-.084q.405,0,.809.014a.5.5,0,0,0,.267-.064c.119,0,.237,0,.356.011a1.857,1.857,0,0,1,1.11.45,1.766,1.766,0,0,1,.393.8,2.089,2.089,0,0,1,.116.791.794.794,0,0,1-.768.817.85.85,0,0,1-.175-.014c-.166-.006-.33-.029-.5-.044a22.912,22.912,0,0,0-3.971.16.889.889,0,0,0-.8.683c-.112.39-.273.766-.39,1.156" fill="#001e8c"/>
      <path id="Tracé_726" data-name="Tracé 726" d="M97.432,5.444c-.133.389-.191.5-.767.541-.753.054-1.506.088-2.262.129-.23.012-.464.017-.695.032-.369.025-.422.062-.487.427-.085.5-.157,1.008-.238,1.512-.142.892-.3,1.782-.428,2.68-.169,1.2-.31,2.4-.467,3.6q-.058.43-.15.861a.733.733,0,0,1-.815.642.719.719,0,0,1-.216-.061A3.3,3.3,0,0,1,89.536,15a.417.417,0,0,0-.168-.128c-.219-.054-.212-.2-.193-.375.083-.693.161-1.387.247-2.08a2.214,2.214,0,0,1,.1-.383c.017-.068.085-.132.082-.191a15.912,15.912,0,0,1,.363-2.885c.087-.676.183-1.353.258-2.031.039-.37-.034-.434-.4-.479a18.534,18.534,0,0,0-2.1.07,1.347,1.347,0,0,1-1.523-.809c-.157-.3-.3-.6-.425-.909a.456.456,0,0,1,.044-.492.474.474,0,0,0,.061-.265c.284-.069.573-.126.869-.173.937-.019,1.874-.041,2.808-.078a11.327,11.327,0,0,0,1.162-.122c.06-.008.128-.111.15-.183a3.755,3.755,0,0,0,.18-.716.35.35,0,0,1,.3-.327,1.537,1.537,0,0,1,1.465.452,1.391,1.391,0,0,1,.215.219.876.876,0,0,0,.957.355c.645-.063,1.293-.136,1.936-.209A1.417,1.417,0,0,1,97,3.816a7.089,7.089,0,0,1,.41.916,1.058,1.058,0,0,1,.035.717" fill="#001e8c"/>
      <path id="Tracé_727" data-name="Tracé 727" d="M15.092,2.649a37.225,37.225,0,0,0-1.613,4.73c-.287.98-.62,1.944-.947,2.911a.4.4,0,0,0,.147.533,1.2,1.2,0,0,1,.441,1.347,1.169,1.169,0,0,1-.989.835,1.627,1.627,0,0,1-.744-.03,5.607,5.607,0,0,1-1.777-.938.925.925,0,0,1-.352-.683c-.011-.455-.013-.911-.02-1.485.242-.805.5-1.71.788-2.607.294-.93.594-1.857.92-2.776.4-1.141.831-2.274,1.264-3.405A.869.869,0,0,0,12.3.6a4.686,4.686,0,0,0,.235-.49A8.09,8.09,0,0,1,13.45.018c.464-.1.8.208,1.109.5.068.063.1.169.171.224a1.436,1.436,0,0,1,.362,1.91" fill="#001e8c"/>
    </g>
  </g>
</svg>
