<svg id="Groupe_868" data-name="Groupe 868" xmlns="http://www.w3.org/2000/svg" xmlns:xlink="http://www.w3.org/1999/xlink" width="57.758" height="37.592" viewBox="0 0 57.758 37.592">
  <defs>
    <clipPath id="clip-path">
      <rect id="Rectangle_2" data-name="Rectangle 2" width="57.758" height="37.592" fill="rgba(0,0,0,0)"/>
    </clipPath>
  </defs>
  <g id="Groupe_1" data-name="Groupe 1" clip-path="url(#clip-path)">
    <path id="Tracé_1" data-name="Tracé 1" d="M24.739.544c-.229.054-1.123.243-1.351.3a19.106,19.106,0,0,0-5.147,2.182L30.266,19.014Z" transform="translate(-9.098 -0.271)" fill="#1374b1"/>
    <path id="Tracé_2" data-name="Tracé 2" d="M12.384,5.5a19.276,19.276,0,0,0-5.269,4.768c-.209.272-.413.578-.617.836L24.409,21.486Z" transform="translate(-3.241 -2.743)" fill="#40a6dd"/>
    <path id="Tracé_3" data-name="Tracé 3" d="M21.187,27.068,3.276,16.69A18.96,18.96,0,0,0,.7,22.26a24.66,24.66,0,0,0-.661,4.759Z" transform="translate(-0.019 -8.324)" fill="#2956a0"/>
    <path id="Tracé_4" data-name="Tracé 4" d="M36.606.058a25.022,25.022,0,0,0-5.4.214l5.527,18.47L41.841,1.2A31.783,31.783,0,0,0,36.606.058" transform="translate(-15.565 0)" fill="#32b099"/>
    <path id="Tracé_5" data-name="Tracé 5" d="M42.232,22.622,60.012,10.67,56.551,8.876l-2.3-1.1Z" transform="translate(-21.064 -3.879)" fill="#238044"/>
    <path id="Tracé_6" data-name="Tracé 6" d="M54.252,5.094A29.45,29.45,0,0,0,51.336,3.81C49.586,3.1,49,2.935,47.359,2.4L42.231,19.938Z" transform="translate(-21.063 -1.195)" fill="#269595"/>
    <path id="Tracé_7" data-name="Tracé 7" d="M69.937,18.544c-3.7-2.377-6.994-4.316-9.916-5.891-.583-.316-1.176-.613-1.73-.9L42.251,24.606Z" transform="translate(-21.073 -5.863)" fill="#319b52"/>
    <path id="Tracé_8" data-name="Tracé 8" d="M78.812,31.338Q74.8,28.47,71.264,26.171l-1.346-.87L42.212,31.362Z" transform="translate(-21.054 -12.619)" fill="#ffea00"/>
    <path id="Tracé_9" data-name="Tracé 9" d="M69.928,21.006l-.549-.35-.948-.6-1.113-.7L66,18.552l-1.663-.991-1.5-.87L42.232,27.068Z" transform="translate(-21.064 -8.324)" fill="#89bd54"/>
    <path id="Tracé_10" data-name="Tracé 10" d="M42.232,37.394,60.007,49.341l-3.456,1.8-2.284,1.108Z" transform="translate(-21.064 -18.651)" fill="#de161f"/>
    <path id="Tracé_11" data-name="Tracé 11" d="M69.928,43.454c-2.561,1.648-4.9,3.067-7.082,4.321-.972.554-1.944,1.069-2.814,1.555-.583.316-1.176.613-1.725.894L42.232,37.393Z" transform="translate(-21.064 -18.65)" fill="#e85f32"/>
    <path id="Tracé_12" data-name="Tracé 12" d="M78.812,37.345c-2.678,1.905-5.191,3.675-7.549,5.215l-1.346.87L42.212,37.369Z" transform="translate(-21.054 -18.626)" fill="#f9bc0b"/>
    <path id="Tracé_13" data-name="Tracé 13" d="M69.928,43.455,67.95,44.709,66,45.909,64.3,46.92l-1.463.856L42.232,37.393Z" transform="translate(-21.064 -18.651)" fill="#f29d5a"/>
    <path id="Tracé_14" data-name="Tracé 14" d="M24.759,55.917c-.233-.054-1.128-.238-1.356-.3a18.847,18.847,0,0,1-5.152-2.182l12.021-16.04Z" transform="translate(-9.103 -18.65)" fill="#e42175"/>
    <path id="Tracé_15" data-name="Tracé 15" d="M12.412,53.414a19.224,19.224,0,0,1-5.274-4.788c-.2-.272-.408-.549-.6-.836l17.892-10.4Z" transform="translate(-3.26 -18.651)" fill="#772680"/>
    <path id="Tracé_16" data-name="Tracé 16" d="M21.168,37.394,3.257,47.81A18.976,18.976,0,0,1,.671,42.22,25.061,25.061,0,0,1,0,37.423Z" transform="translate(0 -18.651)" fill="#552673"/>
    <path id="Tracé_17" data-name="Tracé 17" d="M36.644,56.156c-.442.044-1.04.088-1.04.088h-.928a19.433,19.433,0,0,1-3.4-.345l5.493-18.5,4.54,17.756-.3.1a21.372,21.372,0,0,1-4.375.9" transform="translate(-15.598 -18.651)" fill="#d75871"/>
    <path id="Tracé_18" data-name="Tracé 18" d="M54.282,52.237a29.372,29.372,0,0,1-2.965,1.283c-1.75.71-2.917,1.084-4.545,1.629l-4.54-17.756Z" transform="translate(-21.064 -18.65)" fill="#e3342a"/>
    <path id="Tracé_19" data-name="Tracé 19" d="M42.232,37.394,58.306,50.226c0-.33-.88-4.267-1.031-5.259Z" transform="translate(-21.064 -18.651)" fill="#e54420"/>
    <path id="Tracé_20" data-name="Tracé 20" d="M42.232,37.394l9.187,11.335c2.377.457,5.264,1.191,6.887,1.5Z" transform="translate(-21.064 -18.651)" fill="#e22923"/>
    <path id="Tracé_21" data-name="Tracé 21" d="M18.26,53.409,30.276,37.394,26.45,50.221Z" transform="translate(-9.108 -18.651)" fill="#e13d8b"/>
    <path id="Tracé_22" data-name="Tracé 22" d="M30.276,37.375l-10.45,6.08c-.126.822-1,7.986-1.565,9.94l12.016-16.04" transform="translate(-9.108 -18.631)" fill="#b63280"/>
    <path id="Tracé_23" data-name="Tracé 23" d="M.029,37.394H21.183l-10.45,6.08Z" transform="translate(-0.015 -18.651)" fill="#6d247a"/>
    <path id="Tracé_24" data-name="Tracé 24" d="M34.6,50.221l3.825-12.827,4.54,17.756Z" transform="translate(-17.257 -18.651)" fill="#e42175"/>
    <path id="Tracé_25" data-name="Tracé 25" d="M51.418,48.729,42.232,37.394l4.54,17.756Z" transform="translate(-21.064 -18.651)" fill="#d0161a"/>
    <path id="Tracé_26" data-name="Tracé 26" d="M18.241,5.5,30.266,21.486,26.217,7.964Z" transform="translate(-9.098 -2.743)" fill="#2ba7da"/>
    <path id="Tracé_27" data-name="Tracé 27" d="M18.241,5.5c.583,4.4,1.706,10.013,1.706,10.013l10.319,5.974Z" transform="translate(-9.098 -2.743)" fill="#2295bd"/>
    <path id="Tracé_28" data-name="Tracé 28" d="M.029,31.444H21.183L10.863,25.466Z" transform="translate(-0.015 -12.701)" fill="#223b7b"/>
    <path id="Tracé_29" data-name="Tracé 29" d="M34.154,6.416,38.2,19.938,43.312,2.4Z" transform="translate(-17.035 -1.195)" fill="#28a294"/>
    <path id="Tracé_30" data-name="Tracé 30" d="M58.281,11.754l-6.819,1.458L42.232,24.605Z" transform="translate(-21.064 -5.862)" fill="#319b52"/>
    <path id="Tracé_31" data-name="Tracé 31" d="M47.384,2.4l4.122,6.149L42.319,19.9Z" transform="translate(-21.107 -1.195)" fill="#32b099"/>
    <path id="Tracé_32" data-name="Tracé 32" d="M58.281,11.754,42.232,24.605l15.374-7.743Z" transform="translate(-21.064 -5.862)" fill="#2fa85f"/>
    <path id="Tracé_33" data-name="Tracé 33" d="M64.4,31.348c.822-.972,4.705-4.943,5.522-6.046L42.212,31.363Z" transform="translate(-21.054 -12.62)" fill="gold"/>
    <path id="Tracé_34" data-name="Tracé 34" d="M69.928,23.628,57.606,21.946,42.232,29.689Z" transform="translate(-21.064 -10.946)" fill="#6fb556"/>
    <path id="Tracé_35" data-name="Tracé 35" d="M64.4,37.365c1.818,1.857,4.608,5.206,5.522,6.076L42.212,37.38Z" transform="translate(-21.054 -18.636)" fill="#f5a617"/>
    <path id="Tracé_36" data-name="Tracé 36" d="M69.928,43.455,57.276,44.966,42.232,37.393Z" transform="translate(-21.064 -18.651)" fill="#ef8d33"/>
    <path id="Tracé_37" data-name="Tracé 37" d="M12.6,53.862H11.84v2.916a.093.093,0,0,1-.088.1h-.428a.092.092,0,0,1-.088-.1h0V53.862h-.763a.087.087,0,0,1-.088-.088V53.4a.087.087,0,0,1,.088-.087H12.6a.083.083,0,0,1,.088.077v.389a.083.083,0,0,1-.078.088H12.6" transform="translate(-5.18 -26.588)" fill="#fff"/>
    <path id="Tracé_38" data-name="Tracé 38" d="M17.456,57.7h-.4a.092.092,0,0,1-.088-.1h0v-.112a1.043,1.043,0,0,1-.685.238.687.687,0,0,1-.53-.2,1.258,1.258,0,0,1-.219-.866v-1.56a.1.1,0,0,1,.087-.1h.4a.1.1,0,0,1,.088.1v1.56c0,.239,0,.374.1.457a.381.381,0,0,0,.272.088,1.15,1.15,0,0,0,.486-.194v-1.91a.1.1,0,0,1,.087-.1h.4a.1.1,0,0,1,.088.1v2.5a.093.093,0,0,1-.087.1h0" transform="translate(-7.745 -27.434)" fill="#fff"/>
    <path id="Tracé_39" data-name="Tracé 39" d="M22.386,57.676h-.4a.1.1,0,0,1-.088-.1V56.018c0-.418-.034-.535-.369-.535a.971.971,0,0,0-.486.17V57.6a.1.1,0,0,1-.088.1h-.4a.1.1,0,0,1-.088-.1V55.076a.092.092,0,0,1,.087-.1h.374a.092.092,0,0,1,.088.1h0v.1a1.07,1.07,0,0,1,.71-.224c.627,0,.753.486.753,1.075v1.555a.1.1,0,0,1-.088.1" transform="translate(-10.21 -27.409)" fill="#fff"/>
    <path id="Tracé_40" data-name="Tracé 40" d="M25.888,53.687h-.423a.1.1,0,0,1-.087-.1v-.418a.1.1,0,0,1,.087-.1h.423a.093.093,0,0,1,.088.1v.418a.092.092,0,0,1-.087.1h0m0,3.053h-.4a.1.1,0,0,1-.083-.1v-2.5a.093.093,0,0,1,.083-.1h.4a.1.1,0,0,1,.088.1v2.5a.1.1,0,0,1-.088.1" transform="translate(-12.658 -26.472)" fill="#fff"/>
    <path id="Tracé_41" data-name="Tracé 41" d="M28.178,57.711a3.242,3.242,0,0,1-.782-.1.106.106,0,0,1-.078-.112v-.282a.078.078,0,0,1,.073-.078c.209.025.6.049.734.049.268,0,.306-.1.306-.224s-.049-.15-.189-.243l-.6-.4a.807.807,0,0,1-.364-.661c0-.486.277-.715.827-.715a2.91,2.91,0,0,1,.772.092.107.107,0,0,1,.083.112v.287c0,.058-.029.087-.073.087a7.053,7.053,0,0,0-.719-.053c-.209,0-.3.048-.3.2,0,.078.068.122.175.194l.569.384a.788.788,0,0,1,.418.729.744.744,0,0,1-.736.751.733.733,0,0,1-.115-.008" transform="translate(-13.606 -27.405)" fill="#fff"/>
    <path id="Tracé_42" data-name="Tracé 42" d="M32.037,53.687h-.413a.1.1,0,0,1-.088-.1v-.418a.1.1,0,0,1,.088-.1h.428a.092.092,0,0,1,.083.1v.418a.092.092,0,0,1-.083.1m0,3.053h-.428a.1.1,0,0,1-.088-.1v-2.5a.092.092,0,0,1,.087-.1h.4a.092.092,0,0,1,.087.1h0v2.5a.1.1,0,0,1-.087.1" transform="translate(-15.729 -26.472)" fill="#fff"/>
    <path id="Tracé_43" data-name="Tracé 43" d="M35.438,56.526H34.024c0,.277.107.6.52.6a7.528,7.528,0,0,0,.8-.049.073.073,0,0,1,.073.073v.316c0,.078,0,.112-.087.126a3.478,3.478,0,0,1-.846.083,1.054,1.054,0,0,1-1.06-1.05,1.013,1.013,0,0,1,.01-.151v-.355c0-.744.379-1.215,1.045-1.215s1.031.486,1.031,1.215v.267c0,.078,0,.122-.083.122m-.486-.486c0-.369-.189-.583-.457-.583s-.486.209-.486.583h.943Z" transform="translate(-16.672 -27.386)" fill="#fff"/>
    <path id="Tracé_44" data-name="Tracé 44" d="M42.188,53.861h-.763v2.916a.093.093,0,0,1-.088.1H40.91a.092.092,0,0,1-.088-.1h0V53.861h-.758a.088.088,0,0,1-.092-.083v-.384a.088.088,0,0,1,.087-.088h2.129a.082.082,0,0,1,.083.082v.384a.083.083,0,0,1-.078.088h-.005" transform="translate(-19.937 -26.588)" fill="#fff"/>
    <path id="Tracé_45" data-name="Tracé 45" d="M46.954,56.526H45.534c0,.277.107.6.525.6a7.669,7.669,0,0,0,.8-.049.073.073,0,0,1,.078.068v.321c0,.078,0,.112-.088.126a3.524,3.524,0,0,1-.846.083,1.055,1.055,0,0,1-1.06-1.05,1.084,1.084,0,0,1,.01-.151v-.355c0-.744.374-1.215,1.041-1.215a1.086,1.086,0,0,1,1.074,1.1,1.046,1.046,0,0,1-.01.131v.253c0,.078-.024.122-.087.122m-.486-.486c0-.369-.189-.583-.457-.583s-.462.209-.462.583Z" transform="translate(-22.418 -27.386)" fill="#fff"/>
    <path id="Tracé_46" data-name="Tracé 46" d="M50.437,56.768h-.389a.1.1,0,0,1-.087-.1V53.225a.093.093,0,0,1,.087-.093h.4a.088.088,0,0,1,.083.092h0v3.441a.093.093,0,0,1-.082.1h0" transform="translate(-24.919 -26.501)" fill="#fff"/>
    <path id="Tracé_47" data-name="Tracé 47" d="M53.863,56.55H52.453c0,.277.107.6.525.6a7.566,7.566,0,0,0,.8-.049.078.078,0,0,1,.082.073v.316c0,.078,0,.112-.093.126a3.474,3.474,0,0,1-.846.083,1.055,1.055,0,0,1-1.06-1.05,1.084,1.084,0,0,1,.01-.151v-.355a1.052,1.052,0,0,1,.9-1.182,1.039,1.039,0,0,1,.167-.009c.69,0,1.035.486,1.035,1.215v.243c0,.078-.029.122-.087.122m-.486-.486c0-.369-.189-.583-.457-.583s-.486.209-.486.583H53.4Z" transform="translate(-25.866 -27.41)" fill="#fff"/>
    <path id="Tracé_48" data-name="Tracé 48" d="M58.188,57.644a2.18,2.18,0,0,1-.564.063c-.564,0-.972-.384-.972-1.162V56.1c0-.777.428-1.161.972-1.161a2.159,2.159,0,0,1,.564.063c.073,0,.088.049.088.126v.306c0,.049-.034.068-.078.068a4.234,4.234,0,0,0-.563-.029c-.2,0-.418.126-.418.623v.447c0,.486.214.622.418.622a4.152,4.152,0,0,0,.563-.029c.044,0,.078,0,.078.068v.311c0,.078,0,.107-.088.126" transform="translate(-28.256 -27.4)" fill="#fff"/>
    <path id="Tracé_49" data-name="Tracé 49" d="M61.512,57.717a1.045,1.045,0,0,1-1.05-1.04,1.019,1.019,0,0,1,.01-.151v-.389a1.045,1.045,0,0,1,.9-1.172.932.932,0,0,1,.14-.009c.681,0,1.036.486,1.036,1.186v.389c0,.68-.355,1.191-1.036,1.191M62,56.142c0-.389-.165-.642-.486-.642s-.486.253-.486.642v.389c0,.389.16.642.486.642S62,56.92,62,56.531Z" transform="translate(-30.156 -27.41)" fill="#fff"/>
    <path id="Tracé_50" data-name="Tracé 50" d="M68.431,57.676h-.4a.1.1,0,0,1-.087-.1V55.951c0-.369-.068-.462-.311-.462a.848.848,0,0,0-.4.117v1.968a.1.1,0,0,1-.083.1h-.4a.1.1,0,0,1-.087-.1V55.951c0-.369-.054-.462-.3-.462a.876.876,0,0,0-.4.156v1.944a.1.1,0,0,1-.087.1h-.4a.1.1,0,0,1-.088-.1V55.076a.092.092,0,0,1,.087-.1h.379a.092.092,0,0,1,.083.1v.1a1.041,1.041,0,0,1,.627-.224.578.578,0,0,1,.486.219,1.258,1.258,0,0,1,.743-.219c.588,0,.719.448.719,1.006v1.623a.1.1,0,0,1-.082.1" transform="translate(-32.609 -27.409)" fill="#fff"/>
    <path id="Tracé_51" data-name="Tracé 51" d="M10.5,19.211V21h4.86V31.149A2.414,2.414,0,0,0,18,33.832h2.042V21h2.43a2.713,2.713,0,0,0,2.615-2.494V16.717H13.141A2.552,2.552,0,0,0,10.5,19.18c0,.01,0,.021,0,.031" transform="translate(-5.238 -8.337)" fill="#fff"/>
    <path id="Tracé_52" data-name="Tracé 52" d="M45.167,16.727a2.547,2.547,0,0,0-2.643,2.447c0,.014,0,.028,0,.042V21h4.86V31.154a2.417,2.417,0,0,0,2.644,2.683h2.042V21H54.5a2.718,2.718,0,0,0,2.615-2.494V16.727Z" transform="translate(-21.209 -8.342)" fill="#fff"/>
  </g>
</svg>
