<svg xmlns="http://www.w3.org/2000/svg" width="48.053" height="51" viewBox="0 0 48.053 51">
  <path id="Exclusion_4" data-name="Exclusion 4" d="M19343.225,7292a.994.994,0,0,1-.238-.029.906.906,0,0,1-.578-.418c-.492-.826.018-2.812.895-5.987.473-1.695,1.268-4.531,1.031-5.131-7.932-3.489-12.859-10.431-12.859-18.116,0-11.2,10.555-20.319,23.525-20.319s23.527,9.115,23.527,20.319-10.555,20.319-23.527,20.319c-.752,0-3.432,2.569-5.389,4.445C19346.117,7290.427,19344.348,7292,19343.225,7292Zm11.678-37.164-3.379,3.239-.785.752-4.246,4.076c-.484.476-.982.958-1.463,1.423l-.1.1-.512.5-.051.05-1.25,1.2q-.732.7-1.467,1.409l-.434.421c-.193.188-.389.376-.584.564-.443.429-.961.928-1.467,1.423l-.418.4,13.846-9.3a.223.223,0,0,1,.031-.018l.016-.009.031-.018a.756.756,0,0,1,.164-.054.592.592,0,0,1,.551.229.331.331,0,0,1,.061.107l.006.011c0,.011.01.023.016.038l3.244,8.915c.164-.15.357-.326.564-.5a.843.843,0,0,0,.064-.058l.021-.019c.043-.038.084-.073.127-.108a2.087,2.087,0,0,1,.414-.3c.041-.033.084-.07.127-.107l.035-.029.063-.054c.768-.685,1.551-1.407,2.24-2.043l.225-.208c.191-.18.385-.36.576-.538l.2-.184c.182-.167.363-.335.543-.5.533-.493,1.084-1,1.605-1.472l1.084-.994.545-.5.441-.411,1.027-.957c.871-.814,1.76-1.637,2.617-2.434l.412-.382q.662-.613,1.326-1.229l.338-.313.732-.68q.463-.431.93-.862l.176-.165-.3.2-1.607,1.069q-.747.5-1.492.994l-.414.275-.783.515-.8.521c-1.283.857-2.547,1.7-3.949,2.629q-2.244,1.492-4.479,2.974l-.082.049c-.023.006-.039.012-.055.018l-.01,0a.528.528,0,0,1-.121.028.513.513,0,0,1-.055,0,.583.583,0,0,1-.451-.217.349.349,0,0,1-.08-.128.05.05,0,0,1-.008-.015c0-.007-.006-.014-.01-.021Z" transform="translate(-19330.975 -7241.501)" stroke="rgba(0,0,0,0)" stroke-miterlimit="10" stroke-width="1"/>
</svg>
