<svg xmlns="http://www.w3.org/2000/svg" xmlns:xlink="http://www.w3.org/1999/xlink" width="94.16" height="94.16" viewBox="0 0 94.16 94.16">
  <defs>
    <style>
      .cls-1 {
        fill: none;
      }

      .cls-2 {
        clip-path: url(#clip-path);
      }

      .cls-3 {
        fill: url(#linear-gradient);
      }

      .cls-4 {
        fill: #e9e9e9;
      }

      .cls-5 {
        fill: #cdcdcd;
      }

      .cls-6 {
        fill: #1374b1;
      }

      .cls-7 {
        fill: #40a6dd;
      }

      .cls-8 {
        fill: #2956a0;
      }

      .cls-9 {
        fill: #32b099;
      }

      .cls-10 {
        fill: #238044;
      }

      .cls-11 {
        fill: #269595;
      }

      .cls-12 {
        fill: #319b52;
      }

      .cls-13 {
        fill: #ffea00;
      }

      .cls-14 {
        fill: #89bd54;
      }

      .cls-15 {
        fill: #de161f;
      }

      .cls-16 {
        fill: #e85f32;
      }

      .cls-17 {
        fill: #f9bc0b;
      }

      .cls-18 {
        fill: #f29d5a;
      }

      .cls-19 {
        fill: #e42175;
      }

      .cls-20 {
        fill: #772680;
      }

      .cls-21 {
        fill: #552673;
      }

      .cls-22 {
        fill: #d75871;
      }

      .cls-23 {
        fill: #e74f76;
      }

      .cls-24 {
        fill: #e3342a;
      }

      .cls-25 {
        fill: #e54420;
      }

      .cls-26 {
        fill: #e22923;
      }

      .cls-27 {
        fill: #e13d8b;
      }

      .cls-28 {
        fill: #b63280;
      }

      .cls-29 {
        fill: #6d247a;
      }

      .cls-30 {
        fill: #d0161a;
      }

      .cls-31 {
        fill: #2ba7da;
      }

      .cls-32 {
        fill: #2295bd;
      }

      .cls-33 {
        fill: #223b7b;
      }

      .cls-34 {
        fill: #28a294;
      }

      .cls-35 {
        fill: #2eab7a;
      }

      .cls-36 {
        fill: #2fa85f;
      }

      .cls-37 {
        fill: gold;
      }

      .cls-38 {
        fill: #6fb556;
      }

      .cls-39 {
        fill: #f5a617;
      }

      .cls-40 {
        fill: #ef8d33;
      }

      .cls-41 {
        fill: #fff;
      }

      .cls-42 {
        clip-path: url(#clip-path-2);
      }

      .cls-43 {
        font-size: 10px;
        font-family: SegoeUI, Segoe UI;
      }
    </style>
    <clipPath id="clip-path">
      <path id="Tracé_364" data-name="Tracé 364" class="cls-1" d="M398.735,1261.311c10.666,0,16.919,0,23.172-6.253s6.253-12.506,6.253-23.172v-35.31c0-10.666,0-16.919-6.253-23.172s-12.506-6.253-23.172-6.253h-35.31c-10.666,0-16.919,0-23.172,6.253S334,1185.91,334,1196.576v35.31c0,10.666,0,16.919,6.253,23.172s12.506,6.253,23.172,6.253Z" transform="translate(-334 -1167.151)"/>
    </clipPath>
    <linearGradient id="linear-gradient" x1="-18.769" x2="-17.769" y2="1" gradientUnits="objectBoundingBox">
      <stop offset="0" stop-color="#fff"/>
      <stop offset="0.45" stop-color="#f8f8f8"/>
      <stop offset="0.6" stop-color="#a8a8a8"/>
      <stop offset="1" stop-color="#bcbcbc"/>
    </linearGradient>
    <clipPath id="clip-path-2">
      <path id="Tracé_418" data-name="Tracé 418" class="cls-1" d="M399.171,1261.011c10.713,0,16.615,0,22.652-6.037s6.038-11.939,6.038-22.652v-35.31c0-10.713,0-16.615-6.038-22.652s-11.938-6.038-22.652-6.038h-35.31c-10.713,0-16.615,0-22.652,6.038s-6.037,11.939-6.037,22.652v35.31c0,10.714,0,16.615,6.037,22.652s11.939,6.037,22.652,6.037Z" transform="translate(-335.172 -1168.323)"/>
    </clipPath>
  </defs>
  <g id="Groupe_1584" data-name="Groupe 1584" transform="translate(-334 -1167.151)">
    <g id="Groupe_299" data-name="Groupe 299" transform="translate(334 1167.151)">
      <g id="Groupe_296" data-name="Groupe 296">
        <g id="Groupe_237" data-name="Groupe 237">
          <g id="Groupe_236" data-name="Groupe 236" class="cls-2">
            <g id="base" transform="translate(-0.184 -0.184)">
              <rect id="Rectangle_68" data-name="Rectangle 68" class="cls-3" width="94.528" height="94.528"/>
              <path id="Tracé_363" data-name="Tracé 363" class="cls-4" d="M399.171,1261.011c10.713,0,16.615,0,22.652-6.037s6.038-11.939,6.038-22.652v-35.31c0-10.713,0-16.615-6.038-22.652s-11.938-6.038-22.652-6.038h-35.31c-10.713,0-16.615,0-22.652,6.038s-6.037,11.939-6.037,22.652v35.31c0,10.714,0,16.615,6.037,22.652s11.939,6.037,22.652,6.037Z" transform="translate(-334.252 -1167.403)"/>
            </g>
          </g>
        </g>
        <g id="Groupe_295" data-name="Groupe 295" transform="translate(6.5 20.35)">
          <g id="Groupe_294" data-name="Groupe 294">
            <g id="Groupe_238" data-name="Groupe 238">
              <path id="Tracé_365" data-name="Tracé 365" class="cls-5" d="M372.731,1253.029l-1.284,0a27.178,27.178,0,0,1-4.863-.486l-.5-.11c-.5-.108-1.2-.257-1.422-.316a26.836,26.836,0,0,1-7.319-3.107,27.133,27.133,0,0,1-7.488-6.772c-.294-.386-.581-.783-.857-1.188a26.979,26.979,0,0,1-3.677-7.945l-.005-.018c-.006-.024-.012-.047-.017-.07a34.451,34.451,0,0,1-.935-6.69.786.786,0,0,1-.006-.093.993.993,0,0,1,.007-.114,34.454,34.454,0,0,1,.936-6.688c.005-.019.012-.039.019-.06a26.972,26.972,0,0,1,3.644-7.877c.007-.012.014-.023.021-.034q.411-.608.857-1.195a27.266,27.266,0,0,1,7.488-6.772,26.977,26.977,0,0,1,7.319-3.1c.223-.059.92-.209,1.426-.318l.464-.1a31.515,31.515,0,0,1,5.2-.4c1.158,0,2.131.053,2.5.088a44.489,44.489,0,0,1,7.348,1.6l.967.314c1.628.53,2.525.822,4.6,1.662l.7.279a34.427,34.427,0,0,1,3.417,1.523l3.134,1.5,3.215,1.659c.521.266,1.055.539,1.583.822,1.228.664,2.512,1.38,3.836,2.139a.836.836,0,0,1,.08.042l4.348,2.566,5.632,3.527c.544.347,1.1.7,1.648,1.063,3.337,2.181,6.839,4.577,10.406,7.122a.888.888,0,0,1,0,1.446c-3.431,2.445-7.066,5.01-10.407,7.2-.58.379-1.162.754-1.731,1.119a.885.885,0,0,1-.22.14c-1.8,1.154-3.578,2.267-5.3,3.309l-.226.136c-1.429.863-2.82,1.687-4.159,2.454s-2.649,1.478-3.888,2.148c-.6.322-1.2.63-1.78.929l-3.015,1.567-3.16,1.53a32.407,32.407,0,0,1-3.36,1.479c-.259.1-.51.2-.757.3-2.313.939-3.85,1.448-5.977,2.153l-.32.106h0c-.075.025-.422.141-.439.145a30.642,30.642,0,0,1-6.159,1.281c-.62.06-1.451.12-1.451.12Zm-25.695-20.376a25.232,25.232,0,0,0,3.427,7.393c.258.378.526.751.8,1.113a25.377,25.377,0,0,0,13.837,9.235c.217.056.873.2,1.352.3l.481.1a25.4,25.4,0,0,0,4.515.45l1.25,0c.157-.011.846-.062,1.374-.114a28.182,28.182,0,0,0,5.425-1.1l-1.872-7.321a.888.888,0,1,1,1.721-.441l1.846,7.214c1.807-.6,3.241-1.09,5.284-1.92.256-.1.514-.2.78-.307a30.862,30.862,0,0,0,3.21-1.412l3.158-1.529,3-1.559c.572-.294,1.161-.6,1.747-.913,1.227-.662,2.52-1.367,3.849-2.127s2.706-1.578,4.126-2.436l.2-.117c1.758-1.067,3.56-2.194,5.378-3.363.6-.386,1.223-.785,1.84-1.188,2.987-1.955,6.221-4.221,9.331-6.432-3.2-2.262-6.329-4.4-9.331-6.359-.546-.359-1.1-.71-1.633-1.054l-9.848-6.014c-.023-.011-.046-.023-.069-.036-1.336-.765-2.63-1.488-3.866-2.156-.515-.277-1.038-.544-1.549-.8l-3.2-1.65-3.134-1.5a32.7,32.7,0,0,0-3.278-1.459l-.714-.286c-2.011-.815-2.886-1.1-4.474-1.618l-.058-.019-2.164,7.431a.888.888,0,0,1-1.7-.5l2.166-7.444a38.181,38.181,0,0,0-6.177-1.3c-.216-.021-1.112-.08-2.332-.08a29.9,29.9,0,0,0-4.852.363l-.49.108c-.473.1-1.092.235-1.3.288a25.191,25.191,0,0,0-6.839,2.9,25.487,25.487,0,0,0-7,6.332c-.083.11-.167.222-.249.334l2.338,1.355a.888.888,0,1,1-.891,1.537h0L350,1213.147a25.138,25.138,0,0,0-2.97,6.68.887.887,0,0,1-.037.131,32.708,32.708,0,0,0-.86,6.276v.013a33.189,33.189,0,0,0,.883,6.334C347.023,1232.6,347.03,1232.628,347.036,1232.653Zm22.006,12.188a.911.911,0,0,1-.259-.038.887.887,0,0,1-.591-1.109l.027-.089a.888.888,0,1,1,1.7.517l-.027.089A.888.888,0,0,1,369.041,1244.841Zm5.312-17.724h-.039a.886.886,0,0,1-.277-.048.915.915,0,0,1-.171-.08.889.889,0,0,1-.429-.76h0v0h0a.888.888,0,0,1,.491-.793.919.919,0,0,1,.5-.089.889.889,0,0,1-.072,1.775Z" transform="translate(-344.354 -1199.57)"/>
            </g>
            <g id="Groupe_293" data-name="Groupe 293" transform="translate(0.888 0.889)">
              <g id="Groupe_239" data-name="Groupe 239" transform="translate(12.549 0.377)">
                <path id="Tracé_366" data-name="Tracé 366" class="cls-6" d="M374.7,1201.586c-.318.071-1.551.329-1.862.411a26.048,26.048,0,0,0-7.077,3l16.534,21.976Z" transform="translate(-365.76 -1201.586)"/>
              </g>
              <g id="Groupe_240" data-name="Groupe 240" transform="translate(4.476 3.791)">
                <path id="Tracé_367" data-name="Tracé 367" class="cls-7" d="M360.972,1207.025a26.49,26.49,0,0,0-7.245,6.552q-.429.564-.828,1.153L377.506,1229Z" transform="translate(-352.899 -1207.025)"/>
              </g>
              <g id="Groupe_241" data-name="Groupe 241" transform="translate(0 11.498)">
                <path id="Tracé_368" data-name="Tracé 368" class="cls-8" d="M374.852,1233.572l-24.607-14.27a26.119,26.119,0,0,0-3.557,7.68v.011l-.007.017a33.409,33.409,0,0,0-.908,6.544s0,.017,0,.021Z" transform="translate(-345.769 -1219.302)"/>
              </g>
              <g id="Groupe_242" data-name="Groupe 242" transform="translate(21.488)">
                <path id="Tracé_369" data-name="Tracé 369" class="cls-9" d="M387.42,1201.069a33.868,33.868,0,0,0-7.42.292l7.594,25.392,7.023-24.116a43.657,43.657,0,0,0-7.2-1.567" transform="translate(-380 -1200.986)"/>
              </g>
              <g id="Groupe_243" data-name="Groupe 243" transform="translate(29.083 5.36)">
                <path id="Tracé_370" data-name="Tracé 370" class="cls-10" d="M392.1,1229.932l24.445-16.435-4.761-2.463-3.159-1.51Z" transform="translate(-392.099 -1209.524)"/>
              </g>
              <g id="Groupe_244" data-name="Groupe 244" transform="translate(29.083 1.651)">
                <path id="Tracé_371" data-name="Tracé 371" class="cls-11" d="M408.625,1207.326a41.071,41.071,0,0,0-4.04-1.767c-2.4-.974-3.2-1.2-5.463-1.943l-7.022,24.116Z" transform="translate(-392.099 -1203.616)"/>
              </g>
              <g id="Groupe_245" data-name="Groupe 245" transform="translate(29.083 8.1)">
                <path id="Tracé_372" data-name="Tracé 372" class="cls-12" d="M430.172,1223.225c-5.09-3.271-9.614-5.936-13.627-8.1-.8-.431-1.621-.839-2.384-1.233L392.1,1231.557Z" transform="translate(-392.099 -1213.889)"/>
              </g>
              <g id="Groupe_246" data-name="Groupe 246" transform="translate(29.083 17.436)">
                <path id="Tracé_373" data-name="Tracé 373" class="cls-13" d="M442.4,1237.057q-5.522-3.939-10.378-7.1c-.62-.407-1.244-.8-1.851-1.193l-38.073,8.331Z" transform="translate(-392.099 -1228.762)"/>
              </g>
              <g id="Groupe_247" data-name="Groupe 247" transform="translate(29.083 11.498)">
                <path id="Tracé_374" data-name="Tracé 374" class="cls-14" d="M430.172,1225.24l-.751-.483-1.3-.823-1.532-.958-1.81-1.113-2.286-1.365-2.054-1.2-28.335,14.27Z" transform="translate(-392.099 -1219.302)"/>
              </g>
              <g id="Groupe_248" data-name="Groupe 248" transform="translate(29.083 25.768)">
                <path id="Tracé_375" data-name="Tracé 375" class="cls-15" d="M392.1,1242.034l24.437,16.427-4.752,2.472-3.14,1.52Z" transform="translate(-392.099 -1242.034)"/>
              </g>
              <g id="Groupe_249" data-name="Groupe 249" transform="translate(29.083 25.767)">
                <path id="Tracé_376" data-name="Tracé 376" class="cls-16" d="M430.177,1250.367c-3.523,2.266-6.739,4.219-9.742,5.94-1.336.763-2.635,1.471-3.867,2.137-.8.434-1.612.841-2.373,1.235L392.1,1242.034Z" transform="translate(-392.099 -1242.034)"/>
              </g>
              <g id="Groupe_250" data-name="Groupe 250" transform="translate(29.083 25.731)">
                <path id="Tracé_377" data-name="Tracé 377" class="cls-17" d="M442.4,1241.976c-3.682,2.625-7.137,5.056-10.378,7.176-.62.406-1.24.805-1.846,1.194l-38.078-8.333Z" transform="translate(-392.099 -1241.976)"/>
              </g>
              <g id="Groupe_251" data-name="Groupe 251" transform="translate(29.083 25.768)">
                <path id="Tracé_378" data-name="Tracé 378" class="cls-18" d="M430.177,1250.367l-2.725,1.721-2.678,1.655-2.329,1.391-2.011,1.173L392.1,1242.034Z" transform="translate(-392.099 -1242.034)"/>
              </g>
              <g id="Groupe_252" data-name="Groupe 252" transform="translate(12.56 25.767)">
                <path id="Tracé_379" data-name="Tracé 379" class="cls-19" d="M374.719,1267.474c-.32-.072-1.549-.33-1.864-.411a26,26,0,0,1-7.078-3l16.523-22.023Z" transform="translate(-365.777 -1242.034)"/>
              </g>
              <g id="Groupe_253" data-name="Groupe 253" transform="translate(4.486 25.767)">
                <path id="Tracé_380" data-name="Tracé 380" class="cls-20" d="M360.99,1264.057a26.4,26.4,0,0,1-7.245-6.552q-.428-.562-.83-1.151l24.6-14.32Z" transform="translate(-352.915 -1242.034)"/>
              </g>
              <g id="Groupe_254" data-name="Groupe 254" transform="translate(0 25.767)">
                <path id="Tracé_381" data-name="Tracé 381" class="cls-21" d="M374.852,1242.034l-24.6,14.32a26.135,26.135,0,0,1-3.555-7.683l0-.009a.082.082,0,0,1-.006-.015,33.977,33.977,0,0,1-.92-6.592s0-.016,0-.02Z" transform="translate(-345.769 -1242.034)"/>
              </g>
              <g id="Groupe_255" data-name="Groupe 255" transform="translate(21.5 25.767)">
                <path id="Tracé_382" data-name="Tracé 382" class="cls-22" d="M387.436,1267.831c-.609.059-1.428.118-1.428.118l-1.281,0a26.324,26.324,0,0,1-4.707-.471l7.583-25.439,6.242,24.411-.417.139a29.9,29.9,0,0,1-5.992,1.247" transform="translate(-380.019 -1242.034)"/>
              </g>
              <g id="Groupe_256" data-name="Groupe 256" transform="translate(29.082 25.768)">
                <line id="Ligne_63" data-name="Ligne 63" class="cls-23" x1="6.231" y1="24.379"/>
              </g>
              <g id="Groupe_257" data-name="Groupe 257" transform="translate(29.082 25.767)">
                <path id="Tracé_383" data-name="Tracé 383" class="cls-24" d="M408.664,1262.442a40.011,40.011,0,0,1-4.08,1.763c-2.4.975-3.983,1.49-6.243,2.24l-6.243-24.411Z" transform="translate(-392.098 -1242.034)"/>
              </g>
              <g id="Groupe_258" data-name="Groupe 258" transform="translate(29.083 25.77)">
                <path id="Tracé_384" data-name="Tracé 384" class="cls-25" d="M392.1,1242.039l22.095,17.642c-.033-.456-1.2-5.874-1.416-7.234Z" transform="translate(-392.099 -1242.039)"/>
              </g>
              <g id="Groupe_259" data-name="Groupe 259" transform="translate(29.083 25.77)">
                <path id="Tracé_385" data-name="Tracé 385" class="cls-26" d="M392.1,1242.039l12.631,15.582c3.262.628,7.233,1.634,9.464,2.059Z" transform="translate(-392.099 -1242.039)"/>
              </g>
              <g id="Groupe_260" data-name="Groupe 260" transform="translate(12.564 25.768)">
                <path id="Tracé_386" data-name="Tracé 386" class="cls-27" d="M365.784,1264.054l16.519-22.02-5.261,17.634Z" transform="translate(-365.784 -1242.034)"/>
              </g>
              <g id="Groupe_261" data-name="Groupe 261" transform="translate(12.56 25.767)">
                <path id="Tracé_387" data-name="Tracé 387" class="cls-28" d="M382.3,1242.034l-14.367,8.363c-.176,1.127-1.379,10.979-2.156,13.661l16.522-22.023" transform="translate(-365.778 -1242.034)"/>
              </g>
              <g id="Groupe_262" data-name="Groupe 262" transform="translate(0 25.768)">
                <path id="Tracé_388" data-name="Tracé 388" class="cls-29" d="M345.769,1242.034h29.083l-14.368,8.362Z" transform="translate(-345.769 -1242.034)"/>
              </g>
              <g id="Groupe_263" data-name="Groupe 263" transform="translate(23.822 25.768)">
                <path id="Tracé_389" data-name="Tracé 389" class="cls-19" d="M383.718,1259.668l5.26-17.634,6.243,24.41Z" transform="translate(-383.718 -1242.034)"/>
              </g>
              <g id="Groupe_264" data-name="Groupe 264" transform="translate(29.082 25.768)">
                <path id="Tracé_390" data-name="Tracé 390" class="cls-30" d="M404.73,1257.62,392.1,1242.034l6.243,24.41Z" transform="translate(-392.098 -1242.034)"/>
              </g>
              <g id="Groupe_265" data-name="Groupe 265" transform="translate(12.549 3.791)">
                <path id="Tracé_391" data-name="Tracé 391" class="cls-31" d="M365.76,1207.025,382.294,1229l-5.564-18.594Z" transform="translate(-365.76 -1207.025)"/>
              </g>
              <g id="Groupe_266" data-name="Groupe 266" transform="translate(12.549 3.791)">
                <path id="Tracé_392" data-name="Tracé 392" class="cls-32" d="M365.76,1207.025c.8,6.046,2.35,13.76,2.35,13.76L382.294,1229Z" transform="translate(-365.76 -1207.025)"/>
              </g>
              <g id="Groupe_267" data-name="Groupe 267" transform="translate(0 17.552)">
                <path id="Tracé_393" data-name="Tracé 393" class="cls-33" d="M345.769,1237.162h29.083l-14.185-8.216Z" transform="translate(-345.769 -1228.946)"/>
              </g>
              <g id="Groupe_268" data-name="Groupe 268" transform="translate(23.519 1.651)">
                <path id="Tracé_394" data-name="Tracé 394" class="cls-34" d="M383.236,1209.141l5.564,18.594,7.023-24.119Z" transform="translate(-383.236 -1203.616)"/>
              </g>
              <g id="Groupe_269" data-name="Groupe 269" transform="translate(29.082 1.651)">
                <line id="Ligne_64" data-name="Ligne 64" class="cls-35" x1="7.023" y2="24.117"/>
              </g>
              <g id="Groupe_270" data-name="Groupe 270" transform="translate(29.083 8.1)">
                <path id="Tracé_395" data-name="Tracé 395" class="cls-12" d="M414.161,1213.889l-9.372,2.006L392.1,1231.557Z" transform="translate(-392.099 -1213.889)"/>
              </g>
              <g id="Groupe_271" data-name="Groupe 271" transform="translate(29.145 1.651)">
                <path id="Tracé_396" data-name="Tracé 396" class="cls-9" d="M399.159,1203.616l5.668,8.455L392.2,1227.677Z" transform="translate(-392.198 -1203.616)"/>
              </g>
              <g id="Groupe_272" data-name="Groupe 272" transform="translate(29.083 8.1)">
                <path id="Tracé_397" data-name="Tracé 397" class="cls-36" d="M414.161,1213.889,392.1,1231.557l21.134-10.643Z" transform="translate(-392.099 -1213.889)"/>
              </g>
              <g id="Groupe_273" data-name="Groupe 273" transform="translate(29.085 17.437)">
                <path id="Tracé_398" data-name="Tracé 398" class="cls-37" d="M422.583,1237.073c1.13-1.348,6.471-6.8,7.59-8.31l-38.07,8.331Z" transform="translate(-392.103 -1228.763)"/>
              </g>
              <g id="Groupe_274" data-name="Groupe 274" transform="translate(29.083 15.124)">
                <path id="Tracé_399" data-name="Tracé 399" class="cls-38" d="M430.172,1227.391l-16.939-2.312L392.1,1235.725Z" transform="translate(-392.099 -1225.079)"/>
              </g>
              <g id="Groupe_275" data-name="Groupe 275" transform="translate(29.083 25.747)">
                <path id="Tracé_400" data-name="Tracé 400" class="cls-39" d="M422.582,1242c2.5,2.556,6.339,7.157,7.595,8.354l-38.078-8.333Z" transform="translate(-392.099 -1242.001)"/>
              </g>
              <g id="Groupe_276" data-name="Groupe 276" transform="translate(29.083 25.77)">
                <path id="Tracé_401" data-name="Tracé 401" class="cls-40" d="M430.177,1250.369l-17.4,2.078L392.1,1242.039Z" transform="translate(-392.099 -1242.039)"/>
              </g>
              <g id="Groupe_277" data-name="Groupe 277" transform="translate(7.14 36.731)">
                <path id="Tracé_402" data-name="Tracé 402" class="cls-41" d="M360.187,1260.26H359.14v3.984a.125.125,0,0,1-.119.132h-.593a.126.126,0,0,1-.119-.132v-3.984h-1.046a.115.115,0,0,1-.12-.12v-.517a.12.12,0,0,1,.12-.125h2.923a.12.12,0,0,1,.12.125v.517a.115.115,0,0,1-.12.12" transform="translate(-357.144 -1259.499)"/>
              </g>
              <g id="Groupe_278" data-name="Groupe 278" transform="translate(10.69 37.905)">
                <path id="Tracé_403" data-name="Tracé 403" class="cls-41" d="M365.441,1265.073h-.548a.128.128,0,0,1-.122-.132v-.151a1.437,1.437,0,0,1-.938.328.954.954,0,0,1-.734-.276,1.76,1.76,0,0,1-.3-1.193v-2.139a.136.136,0,0,1,.121-.141h.549a.134.134,0,0,1,.119.141v2.139c0,.329.025.518.137.63a.493.493,0,0,0,.369.119,1.565,1.565,0,0,0,.676-.262v-2.626a.136.136,0,0,1,.122-.141h.548a.134.134,0,0,1,.121.141v3.431a.126.126,0,0,1-.121.132" transform="translate(-362.799 -1261.369)"/>
              </g>
              <g id="Groupe_279" data-name="Groupe 279" transform="translate(14.08 37.858)">
                <path id="Tracé_404" data-name="Tracé 404" class="cls-41" d="M370.841,1265.045h-.552a.131.131,0,0,1-.119-.139v-2.138c0-.573-.049-.733-.507-.733a1.394,1.394,0,0,0-.675.235v2.636a.133.133,0,0,1-.122.139h-.549a.131.131,0,0,1-.118-.139v-3.432a.126.126,0,0,1,.118-.132h.52a.126.126,0,0,1,.119.132v.139a1.469,1.469,0,0,1,.969-.318c.859,0,1.034.638,1.034,1.473v2.138a.132.132,0,0,1-.118.139" transform="translate(-368.199 -1261.295)"/>
              </g>
              <g id="Groupe_280" data-name="Groupe 280" transform="translate(17.467 36.574)">
                <path id="Tracé_405" data-name="Tracé 405" class="cls-41" d="M374.3,1260.09h-.581a.132.132,0,0,1-.125-.133v-.577a.129.129,0,0,1,.125-.13h.581a.125.125,0,0,1,.118.13v.577a.127.127,0,0,1-.118.133m-.019,4.194h-.548a.133.133,0,0,1-.12-.14v-3.432a.127.127,0,0,1,.12-.132h.548a.128.128,0,0,1,.121.132v3.432a.134.134,0,0,1-.121.14" transform="translate(-373.594 -1259.25)"/>
              </g>
              <g id="Groupe_281" data-name="Groupe 281" transform="translate(18.801 37.86)">
                <path id="Tracé_406" data-name="Tracé 406" class="cls-41" d="M376.93,1265.1a4.309,4.309,0,0,1-1.07-.132.144.144,0,0,1-.111-.152v-.391a.1.1,0,0,1,.1-.105h.026c.284.038.824.071,1,.071.369,0,.423-.138.423-.313,0-.125-.068-.2-.262-.334l-.82-.554a1.1,1.1,0,0,1-.5-.906c0-.659.377-.985,1.134-.985a4.1,4.1,0,0,1,1.063.13.146.146,0,0,1,.111.153v.38c0,.08-.04.125-.1.125h-.018a8.309,8.309,0,0,0-.992-.078c-.286,0-.409.071-.409.276,0,.1.089.168.24.266l.78.527a1.077,1.077,0,0,1,.573,1,1.024,1.024,0,0,1-1.171,1.023" transform="translate(-375.719 -1261.298)"/>
              </g>
              <g id="Groupe_282" data-name="Groupe 282" transform="translate(21.693 36.574)">
                <path id="Tracé_407" data-name="Tracé 407" class="cls-41" d="M381.03,1260.09h-.582a.13.13,0,0,1-.122-.133v-.577a.127.127,0,0,1,.122-.13h.582a.123.123,0,0,1,.118.13v.577a.126.126,0,0,1-.118.133m-.018,4.194h-.549a.132.132,0,0,1-.12-.14v-3.432a.127.127,0,0,1,.12-.132h.549a.129.129,0,0,1,.121.132v3.432a.134.134,0,0,1-.121.14" transform="translate(-380.326 -1259.25)"/>
              </g>
              <g id="Groupe_283" data-name="Groupe 283" transform="translate(23.04 37.858)">
                <path id="Tracé_408" data-name="Tracé 408" class="cls-41" d="M385.212,1263.495h-1.95v.021c0,.38.146.832.718.832a10.667,10.667,0,0,0,1.1-.065h.015a.1.1,0,0,1,.1.1v.43c0,.107-.016.152-.119.172a4.648,4.648,0,0,1-1.161.112,1.443,1.443,0,0,1-1.448-1.647v-.485c0-1.026.52-1.671,1.436-1.671s1.421.691,1.421,1.671v.365c0,.106-.036.163-.118.163m-.675-.642c0-.51-.26-.807-.628-.807s-.642.286-.642.807v.026h1.269Z" transform="translate(-382.473 -1261.295)"/>
              </g>
              <g id="Groupe_284" data-name="Groupe 284" transform="translate(27.529 36.731)">
                <path id="Tracé_409" data-name="Tracé 409" class="cls-41" d="M392.665,1260.26H391.62v3.984a.127.127,0,0,1-.121.132h-.592a.126.126,0,0,1-.117-.132v-3.984h-1.045a.114.114,0,0,1-.121-.12v-.517a.119.119,0,0,1,.121-.125h2.921a.12.12,0,0,1,.119.125v.517a.115.115,0,0,1-.119.12" transform="translate(-389.623 -1259.499)"/>
              </g>
              <g id="Groupe_285" data-name="Groupe 285" transform="translate(30.977 37.858)">
                <path id="Tracé_410" data-name="Tracé 410" class="cls-41" d="M397.853,1263.495H395.9v.021c0,.38.145.832.721.832a10.575,10.575,0,0,0,1.1-.065h.017a.1.1,0,0,1,.106.1v.43c0,.107-.018.152-.123.172a4.643,4.643,0,0,1-1.162.112,1.442,1.442,0,0,1-1.444-1.647v-.485c0-1.026.517-1.671,1.434-1.671s1.421.691,1.421,1.671v.365c0,.106-.036.163-.12.163m-.675-.642c0-.51-.259-.807-.626-.807s-.638.286-.638.807v.026h1.264Z" transform="translate(-395.117 -1261.295)"/>
              </g>
              <g id="Groupe_286" data-name="Groupe 286" transform="translate(34.388 36.613)">
                <path id="Tracé_411" data-name="Tracé 411" class="cls-41" d="M401.226,1264.307h-.557a.131.131,0,0,1-.118-.139v-4.726a.124.124,0,0,1,.118-.13h.557a.121.121,0,0,1,.114.13v4.726a.128.128,0,0,1-.114.139" transform="translate(-400.551 -1259.311)"/>
              </g>
              <g id="Groupe_287" data-name="Groupe 287" transform="translate(35.732 37.858)">
                <path id="Tracé_412" data-name="Tracé 412" class="cls-41" d="M405.428,1263.495H403.48v.021c0,.38.145.832.717.832a10.467,10.467,0,0,0,1.1-.065h.014a.1.1,0,0,1,.112.1v.43c0,.107-.017.152-.126.172a4.61,4.61,0,0,1-1.159.112,1.442,1.442,0,0,1-1.445-1.647v-.485c0-1.026.518-1.671,1.435-1.671s1.422.691,1.422,1.671v.365c0,.106-.038.163-.122.163m-.675-.642c0-.51-.257-.807-.626-.807s-.64.286-.64.807v.026h1.266Z" transform="translate(-402.692 -1261.295)"/>
              </g>
              <g id="Groupe_288" data-name="Groupe 288" transform="translate(38.994 37.858)">
                <path id="Tracé_413" data-name="Tracé 413" class="cls-41" d="M410.022,1265.012a2.855,2.855,0,0,1-.771.087c-.776,0-1.363-.525-1.363-1.595v-.611c0-1.072.587-1.6,1.363-1.6a2.951,2.951,0,0,1,.771.087c.1.026.126.066.126.168v.429a.1.1,0,0,1-.107.1h-.019a5.013,5.013,0,0,0-.771-.043c-.281,0-.574.174-.574.858v.611c0,.683.293.86.574.86a5.108,5.108,0,0,0,.771-.045h.019a.094.094,0,0,1,.107.1v.426c0,.106-.023.144-.126.17" transform="translate(-407.888 -1261.295)"/>
              </g>
              <g id="Groupe_289" data-name="Groupe 289" transform="translate(41.659 37.86)">
                <path id="Tracé_414" data-name="Tracé 414" class="cls-41" d="M413.562,1265.1c-.938,0-1.429-.7-1.429-1.635v-.535a1.434,1.434,0,0,1,1.429-1.632c.937,0,1.426.7,1.426,1.632v.535c0,.939-.489,1.635-1.426,1.635m.639-2.17c0-.534-.221-.883-.639-.883s-.64.348-.64.883v.535c0,.537.222.884.64.884s.639-.347.639-.884Z" transform="translate(-412.133 -1261.298)"/>
              </g>
              <g id="Groupe_290" data-name="Groupe 290" transform="translate(45.04 37.858)">
                <path id="Tracé_415" data-name="Tracé 415" class="cls-41" d="M421.692,1265.045h-.552a.134.134,0,0,1-.121-.139v-2.232c0-.5-.094-.635-.43-.635a1.223,1.223,0,0,0-.554.161,4.223,4.223,0,0,1,.023.474v2.232a.133.133,0,0,1-.118.139h-.552a.133.133,0,0,1-.119-.139v-2.232c0-.5-.077-.635-.412-.635a1.21,1.21,0,0,0-.551.217v2.65a.129.129,0,0,1-.119.139h-.549a.133.133,0,0,1-.121-.139v-3.432a.127.127,0,0,1,.121-.132h.522a.126.126,0,0,1,.115.132v.139a1.42,1.42,0,0,1,.856-.318.81.81,0,0,1,.7.3,1.724,1.724,0,0,1,.986-.3c.81,0,.99.612.99,1.379v2.232a.131.131,0,0,1-.117.139" transform="translate(-417.519 -1261.295)"/>
              </g>
              <g id="Groupe_291" data-name="Groupe 291" transform="translate(7.22 11.524)">
                <path id="Tracé_416" data-name="Tracé 416" class="cls-41" d="M357.27,1222.768v2.458h6.68v13.955a3.32,3.32,0,0,0,3.627,3.689h2.811v-17.644h3.32a3.728,3.728,0,0,0,3.6-3.423v-2.459H360.9a3.5,3.5,0,0,0-3.628,3.425" transform="translate(-357.27 -1219.343)"/>
              </g>
              <g id="Groupe_292" data-name="Groupe 292" transform="translate(29.286 11.525)">
                <path id="Tracé_417" data-name="Tracé 417" class="cls-41" d="M396.053,1219.346a3.5,3.5,0,0,0-3.631,3.425v2.456h6.68v13.953a3.321,3.321,0,0,0,3.631,3.689h2.809v-17.642h3.32a3.729,3.729,0,0,0,3.594-3.424v-2.457Z" transform="translate(-392.422 -1219.346)"/>
              </g>
            </g>
          </g>
        </g>
      </g>
    </g>
    <text id="My_TT" data-name="My TT" class="cls-43" transform="translate(390.718 1241.575)"><tspan x="0" y="0">My TT</tspan></text>
  </g>
</svg>
