<svg xmlns="http://www.w3.org/2000/svg" width="229.536" height="52.01" viewBox="0 0 229.536 52.01"><g transform="translate(-417.856 -4724.99)"><path d="M26.11-49.63V-1.68a1.62,1.62,0,0,1-.49,1.19A1.62,1.62,0,0,1,24.43,0H13.93a1.62,1.62,0,0,1-1.19-.49,1.62,1.62,0,0,1-.49-1.19V-25.97q0-.7-.35-.875t-.84.315q-.56.49-1.015.945l-.875.875a1.58,1.58,0,0,1-1.155.49,1.491,1.491,0,0,1-1.155-.56l-7.28-7.7a1.62,1.62,0,0,1-.49-1.19,1.525,1.525,0,0,1,.56-1.19L15.82-50.19a3.677,3.677,0,0,1,1.33-.8,4.421,4.421,0,0,1,1.54-.315h5.74a1.62,1.62,0,0,1,1.19.49A1.62,1.62,0,0,1,26.11-49.63Zm44.31,0v8.54a6.287,6.287,0,0,1-.245,1.61,6.847,6.847,0,0,1-.6,1.54L49.14-1.47A3.373,3.373,0,0,1,48.09-.455,2.553,2.553,0,0,1,46.69,0H34.09q-.77,0-.98-.454a1.03,1.03,0,0,1,.14-1.014L53.62-36.822a1.03,1.03,0,0,0,.1-1.048,1,1,0,0,0-.945-.419H34.09a1.586,1.586,0,0,1-1.225-.493,1.7,1.7,0,0,1-.455-1.2v-9.643a1.7,1.7,0,0,1,.455-1.2,1.586,1.586,0,0,1,1.225-.493H68.74a1.62,1.62,0,0,1,1.19.49A1.62,1.62,0,0,1,70.42-49.63ZM113.05-11.2v9.52a1.622,1.622,0,0,1-.489,1.19,1.613,1.613,0,0,1-1.186.49H77.77a1.622,1.622,0,0,1-1.19-.489,1.615,1.615,0,0,1-.49-1.188V-10.83a3.778,3.778,0,0,1,.35-1.5,3.589,3.589,0,0,1,.91-1.293q3.78-3.143,6.44-5.345t4.48-3.738q1.82-1.537,3.045-2.516t2.135-1.747a32.881,32.881,0,0,0,2.8-2.585,10.778,10.778,0,0,0,1.575-2.062,5.645,5.645,0,0,0,.665-1.747,9.549,9.549,0,0,0,.14-1.642,3.276,3.276,0,0,0-1.505-3.144,6.448,6.448,0,0,0-3.185-.838,3.11,3.11,0,0,0-1.925.665,7.229,7.229,0,0,0-1.54,1.61,12.349,12.349,0,0,0-1.155,2.03,20.57,20.57,0,0,0-.77,1.925,1.752,1.752,0,0,1-.805.98,1.782,1.782,0,0,1-1.295.21L76.3-34.16a1.618,1.618,0,0,1-1.015-.805,1.5,1.5,0,0,1-.105-1.225,36.138,36.138,0,0,1,2.38-5.089,24.6,24.6,0,0,1,3.85-5.171,20.187,20.187,0,0,1,5.425-3.976,15.459,15.459,0,0,1,7.1-1.584,20.672,20.672,0,0,1,8.243,1.505,17.359,17.359,0,0,1,5.78,3.92,15.665,15.665,0,0,1,3.412,5.46,17.521,17.521,0,0,1,1.115,6.055,19.422,19.422,0,0,1-.731,5.5,18.542,18.542,0,0,1-2.124,4.69,24.555,24.555,0,0,1-3.378,4.2q-1.985,1.995-4.423,4.025-.7.63-1.045.91t-.592.49q-.244.21-.592.49l-1.045.84q-.56.42-.455.735t.8.315h12.467a1.613,1.613,0,0,1,1.186.49A1.622,1.622,0,0,1,113.05-11.2Z" transform="translate(471 4777)" fill="#fff"/><path d="M23.16-47.88l-3.12,5.64a2.716,2.716,0,0,1-1.68,1.38,2.777,2.777,0,0,1-2.16-.3L5.04-48.48A2.746,2.746,0,0,1,3.9-50.22a2.323,2.323,0,0,1,.66-1.98l5.16-5.64a1.85,1.85,0,0,0,.6-1.74q-.24-.78-1.44-1.02L1.92-62.16A2.392,2.392,0,0,1,.18-63.42,2.576,2.576,0,0,1,0-65.52L4.08-77.64A2.543,2.543,0,0,1,5.46-79.2a2.683,2.683,0,0,1,2.22,0l5.88,2.76a1.793,1.793,0,0,0,1.8,0,1.653,1.653,0,0,0,.6-1.68l-.48-6.6a2.5,2.5,0,0,1,.66-2.1,2.838,2.838,0,0,1,2.1-.78H31.2a2.683,2.683,0,0,1,1.98.78,2.5,2.5,0,0,1,.66,2.1l-.6,7.2a1.653,1.653,0,0,0,.6,1.68,1.658,1.658,0,0,0,1.8-.12l6-3.12a2.191,2.191,0,0,1,2.1-.12,2.543,2.543,0,0,1,1.38,1.56l3.96,12.12a2.576,2.576,0,0,1-.18,2.1,2.392,2.392,0,0,1-1.74,1.26l-6.72,1.68q-1.2.24-1.44,1.02a1.85,1.85,0,0,0,.6,1.74l5.04,5.52a2.512,2.512,0,0,1,.72,1.98,2.435,2.435,0,0,1-1.2,1.74L33-41.16a2.569,2.569,0,0,1-2.1.3,2.817,2.817,0,0,1-1.74-1.26l-3.24-5.76q-.6-1.08-1.38-1.08T23.16-47.88Z" transform="translate(418 4816)" fill="#fff"/><path d="M45.08-11.55H40.04a2.336,2.336,0,0,0-1.4.455,2.679,2.679,0,0,0-.91,1.085q-.84,2.03-1.75,4.235T34.3-1.61a2.118,2.118,0,0,1-.875,1.155A2.39,2.39,0,0,1,32.06,0H22.75A1.133,1.133,0,0,1,21.7-.455a1.381,1.381,0,0,1-.07-1.155l3.29-8.4a1.052,1.052,0,0,0-.035-1.085,1.147,1.147,0,0,0-1.015-.455H21.7a2.336,2.336,0,0,0-1.4.455,2.679,2.679,0,0,0-.91,1.085L16.1-1.61a2.118,2.118,0,0,1-.875,1.155A2.39,2.39,0,0,1,13.86,0H4.62A1.133,1.133,0,0,1,3.57-.455,1.381,1.381,0,0,1,3.5-1.61l3.22-8.4A1.052,1.052,0,0,0,6.685-11.1,1.147,1.147,0,0,0,5.67-11.55H.77a1.226,1.226,0,0,1-1.085-.455A1.175,1.175,0,0,1-.35-13.16l3.43-9.31a2.679,2.679,0,0,1,.91-1.085,2.336,2.336,0,0,1,1.4-.455h5.04a2.235,2.235,0,0,0,1.33-.455,2.588,2.588,0,0,0,.91-1.155l.42-1.19a1.052,1.052,0,0,0-.035-1.085,1.147,1.147,0,0,0-1.015-.455H7.14a1.133,1.133,0,0,1-1.05-.455,1.115,1.115,0,0,1,0-1.085l3.5-8.68a2.679,2.679,0,0,1,.91-1.085,2.336,2.336,0,0,1,1.4-.455h4.9a2.39,2.39,0,0,0,1.365-.455,2.118,2.118,0,0,0,.875-1.155q.77-1.96,1.61-4.1t1.61-3.955a2.679,2.679,0,0,1,.91-1.085,2.336,2.336,0,0,1,1.4-.455h9.31a1.147,1.147,0,0,1,1.015.455,1.052,1.052,0,0,1,.035,1.085l-3.15,8.05a1.381,1.381,0,0,0,.07,1.155,1.133,1.133,0,0,0,1.05.455h2.03a2.39,2.39,0,0,0,1.365-.455,2.6,2.6,0,0,0,.945-1.085q.77-2.03,1.61-4.13t1.61-3.99a2.679,2.679,0,0,1,.91-1.085,2.336,2.336,0,0,1,1.4-.455h9.38a1.147,1.147,0,0,1,1.015.455A1.052,1.052,0,0,1,53.2-49.77l-3.22,8.05a1.249,1.249,0,0,0,0,1.155,1.133,1.133,0,0,0,1.05.455h5.18a1.147,1.147,0,0,1,1.015.455,1.052,1.052,0,0,1,.035,1.085l-3.43,8.61a2.513,2.513,0,0,1-.945,1.155,2.39,2.39,0,0,1-1.365.455H46.27a2.336,2.336,0,0,0-1.4.455,2.194,2.194,0,0,0-.84,1.085l-.42,1.19a1.175,1.175,0,0,0,.035,1.155,1.226,1.226,0,0,0,1.085.455h5.04a1.147,1.147,0,0,1,1.015.455,1.052,1.052,0,0,1,.035,1.085l-3.5,9.31a2.118,2.118,0,0,1-.875,1.155A2.39,2.39,0,0,1,45.08-11.55ZM30.59-28.84H28.07a2.852,2.852,0,0,0-1.645.56,3.279,3.279,0,0,0-1.155,1.33l-.56,1.47a1.518,1.518,0,0,0,.105,1.4,1.458,1.458,0,0,0,1.3.56H28.7a2.852,2.852,0,0,0,1.645-.56,2.746,2.746,0,0,0,1.085-1.4l.56-1.47a1.332,1.332,0,0,0-.14-1.33A1.475,1.475,0,0,0,30.59-28.84Z" transform="translate(590 4777)" fill="#fff"/></g></svg>