<svg id="Groupe_1409" data-name="Groupe 1409" xmlns="http://www.w3.org/2000/svg" xmlns:xlink="http://www.w3.org/1999/xlink" width="66.668" height="80" viewBox="0 0 66.668 80">
  <defs>
    <clipPath id="clip-path">
      <rect id="Rectangle_6708" data-name="Rectangle 6708" width="66.668" height="80" fill="#001e8c"/>
    </clipPath>
  </defs>
  <g id="Groupe_1197" data-name="Groupe 1197" clip-path="url(#clip-path)">
    <path id="Tracé_709" data-name="Tracé 709" d="M43.18,38.423,63.687,21.948a3.071,3.071,0,0,0,0-4.789L43.18.683a3.071,3.071,0,0,0-4.995,2.394V3.6a3.067,3.067,0,0,1-2.713,3.043C14.3,9.131,0,22.912,0,39.547v.125a5.633,5.633,0,0,0,9.41,4.057c6.376-5.759,14.955-9.705,25.562-10.775a2.938,2.938,0,0,1,3.213,2.934v.138a3.072,3.072,0,0,0,4.995,2.4" fill="#001e8c"/>
    <path id="Tracé_710" data-name="Tracé 710" d="M23.488,41.577,2.981,58.052a3.071,3.071,0,0,0,0,4.789L23.488,79.317a3.071,3.071,0,0,0,4.995-2.394V76.4A3.067,3.067,0,0,1,31.2,73.362c21.168-2.493,35.472-16.274,35.472-32.909v-.125a5.633,5.633,0,0,0-9.41-4.057C50.883,42.03,42.3,45.976,31.7,47.046a2.938,2.938,0,0,1-3.213-2.934v-.138a3.072,3.072,0,0,0-4.995-2.4" fill="#001e8c"/>
  </g>
</svg>
