<svg xmlns="http://www.w3.org/2000/svg" width="40.002" height="40.002" viewBox="0 0 40.002 40.002">
  <path id="Exclusion_4" data-name="Exclusion 4" d="M-15895,40h-10a14.905,14.905,0,0,1-10.609-4.394A14.907,14.907,0,0,1-15920,25V15a14.9,14.9,0,0,1,4.394-10.605A14.906,14.906,0,0,1-15905,0h10a14.909,14.909,0,0,1,10.609,4.393A14.9,14.9,0,0,1-15880,15V25a14.907,14.907,0,0,1-4.394,10.609A14.908,14.908,0,0,1-15895,40Zm-5.376-30a4.808,4.808,0,0,0-1.512.245,4.785,4.785,0,0,0-2.787,2.406,4.77,4.77,0,0,0-.27,3.671,4.844,4.844,0,0,0,3.057,3.056,9.59,9.59,0,0,0-8.111,9.485,1.143,1.143,0,0,0,1.135,1.139h16.973a1.143,1.143,0,0,0,1.135-1.139,9.589,9.589,0,0,0-8.11-9.485,4.776,4.776,0,0,0,2.788-2.406,4.773,4.773,0,0,0,.269-3.671A4.8,4.8,0,0,0-15900.378,10Z" transform="translate(15920.001)" fill="#001e8c"/>
</svg>
